<svg width="200" height="62" viewBox="0 0 200 62" fill="none" xmlns="http://www.w3.org/2000/svg">
<path opacity="0.5" d="M55.9864 1.2944L42.2849 57.0532C42.2153 57.3063 41.9366 57.3822 41.774 57.205L32.601 47.2074L39.475 19.2648C39.5446 19.0117 39.3356 18.7839 39.1034 18.8598L13.4654 26.3517L4.33885 16.4047C4.17629 16.2275 4.24595 15.9238 4.47818 15.8479L55.6148 0.889429C55.8471 0.838808 56.0561 1.0666 55.9864 1.2944Z" fill="#00B37E"/>
<path opacity="0.5" d="M32.6005 47.207L29.0707 61.6339C29.001 61.887 28.7223 61.9629 28.5598 61.7857L0.0885944 30.7805C-0.0739653 30.6033 -0.0042972 30.2996 0.227931 30.2237L13.4649 26.3512L32.6005 47.207Z" fill="#00B37E"/>
<path d="M39.4738 19.2643L32.5999 47.207L13.4643 26.3512L39.1022 18.8593C39.3345 18.7834 39.5435 19.0112 39.4738 19.2643Z" fill="#00B37E"/>
<path d="M77.6001 21.6927V39.8823H73.8648V21.6927H77.6001ZM89.4433 26.3651H92.7039V39.4326C92.7039 40.6652 92.4291 41.7104 91.8794 42.5683C91.3381 43.4344 90.5802 44.0882 89.6057 44.5296C88.6313 44.9794 87.4986 45.2042 86.2077 45.2042C85.6413 45.2042 85.0417 45.1293 84.4087 44.9794C83.7841 44.8295 83.1844 44.5963 82.6097 44.2798C82.0434 43.9633 81.5687 43.5635 81.1856 43.0805L82.7721 40.9567C83.1886 41.4397 83.6716 41.8145 84.2213 42.081C84.771 42.3559 85.379 42.4933 86.0453 42.4933C86.6949 42.4933 87.2446 42.3725 87.6943 42.131C88.1441 41.8978 88.4897 41.5522 88.7312 41.0941C88.9728 40.6444 89.0935 40.0988 89.0935 39.4575V29.4883L89.4433 26.3651ZM80.3485 33.2861V33.0237C80.3485 31.991 80.4735 31.054 80.7233 30.2128C80.9815 29.3633 81.3438 28.6346 81.8102 28.0266C82.2849 27.4186 82.8596 26.9481 83.5342 26.6149C84.2088 26.2818 84.9709 26.1152 85.8204 26.1152C86.7199 26.1152 87.4736 26.2818 88.0816 26.6149C88.6896 26.9481 89.1893 27.4228 89.5807 28.0391C89.9722 28.6471 90.2762 29.3675 90.4927 30.2004C90.7176 31.0249 90.8925 31.9285 91.0174 32.9113V33.486C90.8925 34.4271 90.7051 35.3016 90.4552 36.1095C90.2054 36.9173 89.8764 37.6253 89.4683 38.2332C89.0602 38.8329 88.5522 39.2993 87.9442 39.6324C87.3445 39.9656 86.6283 40.1322 85.7954 40.1322C84.9626 40.1322 84.2088 39.9614 83.5342 39.62C82.8679 39.2785 82.2974 38.7996 81.8227 38.1833C81.348 37.567 80.9815 36.8424 80.7233 36.0095C80.4735 35.1767 80.3485 34.2689 80.3485 33.2861ZM83.9465 33.0237V33.2861C83.9465 33.8441 84.0006 34.3646 84.1089 34.8477C84.2172 35.3307 84.3837 35.7597 84.6086 36.1345C84.8418 36.5009 85.1291 36.7882 85.4706 36.9965C85.8204 37.1963 86.2327 37.2963 86.7074 37.2963C87.3653 37.2963 87.9025 37.1589 88.319 36.884C88.7354 36.6009 89.0477 36.2136 89.2559 35.7222C89.4641 35.2308 89.5849 34.6645 89.6182 34.0232V32.3866C89.6016 31.8619 89.5308 31.3913 89.4058 30.9749C89.2809 30.5502 89.106 30.1879 88.8811 29.888C88.6563 29.5882 88.3648 29.355 88.0066 29.1884C87.6485 29.0219 87.2238 28.9386 86.7324 28.9386C86.2576 28.9386 85.8454 29.0468 85.4956 29.2634C85.1541 29.4716 84.8668 29.7589 84.6336 30.1254C84.4087 30.4919 84.238 30.9249 84.1214 31.4247C84.0048 31.916 83.9465 32.4491 83.9465 33.0237ZM99.0253 29.2509V39.8823H95.4274V26.3651H98.8005L99.0253 29.2509ZM98.5006 32.649H97.5262C97.5262 31.6495 97.6553 30.75 97.9135 29.9505C98.1716 29.1426 98.5339 28.4555 99.0003 27.8892C99.4667 27.3145 100.021 26.8773 100.662 26.5774C101.312 26.2693 102.036 26.1152 102.836 26.1152C103.469 26.1152 104.047 26.2068 104.572 26.39C105.097 26.5733 105.547 26.8648 105.921 27.2645C106.304 27.6643 106.596 28.1932 106.796 28.8511C107.004 29.5091 107.108 30.3128 107.108 31.2622V39.8823H103.485V31.2498C103.485 30.6501 103.402 30.1837 103.235 29.8506C103.069 29.5174 102.823 29.2842 102.498 29.151C102.182 29.0094 101.79 28.9386 101.324 28.9386C100.841 28.9386 100.42 29.0344 100.062 29.2259C99.7124 29.4175 99.4209 29.684 99.1877 30.0255C98.9629 30.3586 98.7921 30.75 98.6755 31.1998C98.5589 31.6495 98.5006 32.1326 98.5006 32.649ZM113.642 26.3651V39.8823H110.032V26.3651H113.642ZM109.807 22.8421C109.807 22.3174 109.99 21.8843 110.356 21.5428C110.723 21.2013 111.214 21.0306 111.83 21.0306C112.438 21.0306 112.926 21.2013 113.292 21.5428C113.667 21.8843 113.854 22.3174 113.854 22.8421C113.854 23.3668 113.667 23.7999 113.292 24.1413C112.926 24.4828 112.438 24.6535 111.83 24.6535C111.214 24.6535 110.723 24.4828 110.356 24.1413C109.99 23.7999 109.807 23.3668 109.807 22.8421ZM123.236 26.3651V28.9136H115.366V26.3651H123.236ZM117.315 23.0295H120.913V35.8096C120.913 36.2011 120.963 36.5009 121.063 36.7091C121.171 36.9173 121.329 37.0631 121.537 37.1464C121.746 37.2213 122.008 37.2588 122.324 37.2588C122.549 37.2588 122.749 37.2505 122.924 37.2338C123.107 37.2088 123.261 37.1838 123.386 37.1589L123.399 39.8073C123.091 39.9073 122.758 39.9864 122.399 40.0447C122.041 40.103 121.646 40.1322 121.213 40.1322C120.421 40.1322 119.73 40.0031 119.139 39.7449C118.556 39.4784 118.106 39.0536 117.79 38.4706C117.473 37.8876 117.315 37.1214 117.315 36.1719V23.0295ZM131.507 40.1322C130.457 40.1322 129.516 39.9656 128.683 39.6324C127.85 39.291 127.143 38.8204 126.56 38.2208C125.985 37.6211 125.543 36.9257 125.235 36.1345C124.927 35.3349 124.773 34.4854 124.773 33.5859V33.0862C124.773 32.0618 124.919 31.1248 125.21 30.2753C125.502 29.4258 125.918 28.6887 126.46 28.0641C127.009 27.4394 127.676 26.9605 128.458 26.6274C129.241 26.2859 130.124 26.1152 131.107 26.1152C132.065 26.1152 132.914 26.2734 133.655 26.5899C134.397 26.9064 135.017 27.3562 135.517 27.9392C136.025 28.5222 136.408 29.2217 136.666 30.0379C136.924 30.8458 137.054 31.7453 137.054 32.7364V34.2355H126.31V31.8369H133.518V31.5621C133.518 31.0624 133.426 30.6168 133.243 30.2253C133.068 29.8256 132.802 29.5091 132.444 29.2759C132.086 29.0427 131.627 28.9261 131.069 28.9261C130.595 28.9261 130.187 29.0302 129.845 29.2384C129.504 29.4466 129.225 29.7381 129.008 30.1129C128.8 30.4877 128.642 30.9291 128.533 31.4371C128.433 31.9369 128.383 32.4865 128.383 33.0862V33.5859C128.383 34.1273 128.458 34.627 128.608 35.0851C128.767 35.5431 128.987 35.9387 129.27 36.2719C129.562 36.605 129.912 36.8632 130.32 37.0464C130.736 37.2297 131.207 37.3213 131.732 37.3213C132.381 37.3213 132.985 37.1963 133.543 36.9465C134.109 36.6883 134.597 36.301 135.005 35.7847L136.754 37.6836C136.471 38.0917 136.083 38.4831 135.592 38.8579C135.109 39.2327 134.526 39.5408 133.843 39.7824C133.16 40.0156 132.381 40.1322 131.507 40.1322ZM149.446 21.6927V39.8823H145.699V21.6927H149.446ZM156.692 29.4633V32.3866H148.422V29.4633H156.692ZM157.567 21.6927V24.6286H148.422V21.6927H157.567ZM165.462 40.1322C164.413 40.1322 163.472 39.9656 162.639 39.6324C161.806 39.291 161.098 38.8204 160.515 38.2208C159.94 37.6211 159.499 36.9257 159.191 36.1345C158.883 35.3349 158.729 34.4854 158.729 33.5859V33.0862C158.729 32.0618 158.874 31.1248 159.166 30.2753C159.457 29.4258 159.874 28.6887 160.415 28.0641C160.965 27.4394 161.631 26.9605 162.414 26.6274C163.197 26.2859 164.08 26.1152 165.062 26.1152C166.02 26.1152 166.87 26.2734 167.611 26.5899C168.352 26.9064 168.973 27.3562 169.472 27.9392C169.98 28.5222 170.364 29.2217 170.622 30.0379C170.88 30.8458 171.009 31.7453 171.009 32.7364V34.2355H160.265V31.8369H167.474V31.5621C167.474 31.0624 167.382 30.6168 167.199 30.2253C167.024 29.8256 166.757 29.5091 166.399 29.2759C166.041 29.0427 165.583 28.9261 165.025 28.9261C164.55 28.9261 164.142 29.0302 163.801 29.2384C163.459 29.4466 163.18 29.7381 162.964 30.1129C162.755 30.4877 162.597 30.9291 162.489 31.4371C162.389 31.9369 162.339 32.4865 162.339 33.0862V33.5859C162.339 34.1273 162.414 34.627 162.564 35.0851C162.722 35.5431 162.943 35.9387 163.226 36.2719C163.518 36.605 163.867 36.8632 164.275 37.0464C164.692 37.2297 165.162 37.3213 165.687 37.3213C166.337 37.3213 166.941 37.1963 167.499 36.9465C168.065 36.6883 168.552 36.301 168.96 35.7847L170.709 37.6836C170.426 38.0917 170.039 38.4831 169.547 38.8579C169.064 39.2327 168.481 39.5408 167.798 39.7824C167.115 40.0156 166.337 40.1322 165.462 40.1322ZM179.279 40.1322C178.23 40.1322 177.289 39.9656 176.456 39.6324C175.623 39.291 174.915 38.8204 174.332 38.2208C173.757 37.6211 173.316 36.9257 173.008 36.1345C172.7 35.3349 172.546 34.4854 172.546 33.5859V33.0862C172.546 32.0618 172.691 31.1248 172.983 30.2753C173.274 29.4258 173.691 28.6887 174.232 28.0641C174.782 27.4394 175.448 26.9605 176.231 26.6274C177.014 26.2859 177.897 26.1152 178.88 26.1152C179.837 26.1152 180.687 26.2734 181.428 26.5899C182.169 26.9064 182.79 27.3562 183.289 27.9392C183.798 28.5222 184.181 29.2217 184.439 30.0379C184.697 30.8458 184.826 31.7453 184.826 32.7364V34.2355H174.082V31.8369H181.291V31.5621C181.291 31.0624 181.199 30.6168 181.016 30.2253C180.841 29.8256 180.574 29.5091 180.216 29.2759C179.858 29.0427 179.4 28.9261 178.842 28.9261C178.367 28.9261 177.959 29.0302 177.618 29.2384C177.276 29.4466 176.997 29.7381 176.781 30.1129C176.573 30.4877 176.414 30.9291 176.306 31.4371C176.206 31.9369 176.156 32.4865 176.156 33.0862V33.5859C176.156 34.1273 176.231 34.627 176.381 35.0851C176.539 35.5431 176.76 35.9387 177.043 36.2719C177.335 36.605 177.684 36.8632 178.092 37.0464C178.509 37.2297 178.979 37.3213 179.504 37.3213C180.154 37.3213 180.758 37.1963 181.316 36.9465C181.882 36.6883 182.369 36.301 182.777 35.7847L184.526 37.6836C184.243 38.0917 183.856 38.4831 183.364 38.8579C182.881 39.2327 182.298 39.5408 181.615 39.7824C180.933 40.0156 180.154 40.1322 179.279 40.1322ZM194.858 36.934V20.6933H198.481V39.8823H195.22L194.858 36.934ZM186.313 33.2861V33.0237C186.313 31.991 186.429 31.054 186.663 30.2128C186.896 29.3633 187.237 28.6346 187.687 28.0266C188.137 27.4186 188.691 26.9481 189.349 26.6149C190.006 26.2818 190.756 26.1152 191.597 26.1152C192.388 26.1152 193.08 26.2818 193.671 26.6149C194.271 26.9481 194.779 27.4228 195.195 28.0391C195.62 28.6471 195.961 29.3675 196.22 30.2004C196.478 31.0249 196.665 31.9285 196.782 32.9113V33.486C196.665 34.4271 196.478 35.3016 196.22 36.1095C195.961 36.9173 195.62 37.6253 195.195 38.2332C194.779 38.8329 194.271 39.2993 193.671 39.6324C193.071 39.9656 192.372 40.1322 191.572 40.1322C190.731 40.1322 189.981 39.9614 189.324 39.62C188.674 39.2785 188.124 38.7996 187.674 38.1833C187.233 37.567 186.896 36.8424 186.663 36.0095C186.429 35.1767 186.313 34.2689 186.313 33.2861ZM189.911 33.0237V33.2861C189.911 33.8441 189.952 34.3646 190.036 34.8477C190.127 35.3307 190.273 35.7597 190.473 36.1345C190.681 36.5009 190.948 36.7882 191.272 36.9965C191.606 37.1963 192.009 37.2963 192.484 37.2963C193.101 37.2963 193.609 37.1589 194.008 36.884C194.408 36.6009 194.712 36.2136 194.92 35.7222C195.137 35.2308 195.262 34.6645 195.295 34.0232V32.3866C195.27 31.8619 195.195 31.3913 195.07 30.9749C194.954 30.5502 194.779 30.1879 194.546 29.888C194.321 29.5882 194.037 29.355 193.696 29.1884C193.363 29.0219 192.967 28.9386 192.509 28.9386C192.043 28.9386 191.643 29.0468 191.31 29.2634C190.977 29.4716 190.706 29.7589 190.498 30.1254C190.298 30.4919 190.148 30.9249 190.048 31.4247C189.957 31.916 189.911 32.4491 189.911 33.0237Z" fill="#E1E1E6"/>
</svg>
